<svg xmlns="http://www.w3.org/2000/svg" viewBox="0 0 64 64">

<svg xmlns="http://www.w3.org/2000/svg" viewBox="0 0 64 64">
  
    <circle cx="32" cy="32" r="22" fill="#EFE4D2"/>
    <path d="M32 8c8 0 14 2 19 7 4 4 7 10 7 17 0 7-2 14-7 19-4 4-11 7-19 7-7 0-14-2-19-7-4-4-7-11-7-19 0-7 3-13 7-17 5-5 11-7 19-7Z"
          fill="none" stroke="#B6A58B" stroke-width="2.6" stroke-linecap="round" stroke-dasharray="7 5 10 6 5 6"/>
    
  <g fill="none" stroke="#2E1B12" stroke-width="2.2" stroke-linecap="round" stroke-linejoin="round">
    <rect x="18" y="20" width="28" height="18" rx="2"/>
    <path d="M14 44h36"/>
    <path d="M24 38l-3 6"/>
    <path d="M40 38l3 6"/>
  </g>
</svg>

</svg>